<svg xmlns="http://www.w3.org/2000/svg" version="1.1" xmlns:xlink="http://www.w3.org/1999/xlink" xmlns:svgjs="http://svgjs.dev/svgjs" width="1000" height="999" viewBox="0 0 1000 999"><g transform="matrix(1,0,0,1,-0.215743440233382,-0.21552769679306039)"><svg viewBox="0 0 343 343" data-background-color="#ffffff" preserveAspectRatio="xMidYMid meet" height="999" width="1000" xmlns="http://www.w3.org/2000/svg" xmlns:xlink="http://www.w3.org/1999/xlink"><g id="tight-bounds" transform="matrix(1,0,0,1,0.0740000000000407,0.07400000000001228)"><svg viewBox="0 0 342.85155851775386 342.85155851775386" height="342.85155851775386" width="342.85155851775386"><g><svg></svg></g><g><svg viewBox="0 0 342.85155851775386 342.85155851775386" height="342.85155851775386" width="342.85155851775386"><g><path d="M0 171.426c0-94.676 76.75-171.426 171.426-171.426 94.676 0 171.426 76.75 171.426 171.426 0 94.676-76.75 171.426-171.426 171.426-94.676 0-171.426-76.75-171.426-171.426zM171.426 325.932c85.332 0 154.507-69.175 154.506-154.506 0-85.332-69.175-154.507-154.506-154.507-85.332 0-154.507 69.175-154.507 154.507 0 85.332 69.175 154.507 154.507 154.506z" data-fill-palette-color="tertiary" fill="#1c3955" stroke="transparent"></path><ellipse rx="164.56874808852186" ry="164.56874808852186" cx="171.42577925887693" cy="171.42577925887693" fill="#1c3955" stroke="transparent" stroke-width="0" fill-opacity="1" data-fill-palette-color="tertiary"></ellipse></g><g transform="matrix(1,0,0,1,64.84655864529837,77.61903515025453)"><svg viewBox="0 0 213.1584412271571 187.6134882172448" height="187.6134882172448" width="213.1584412271571"><g><svg viewBox="0 0 213.1584412271571 187.6134882172448" height="187.6134882172448" width="213.1584412271571"><g><svg viewBox="0 0 213.1584412271571 187.6134882172448" height="187.6134882172448" width="213.1584412271571"><g><svg viewBox="0 0 213.1584412271571 187.6134882172448" height="187.6134882172448" width="213.1584412271571"><g><svg viewBox="0 0 213.1584412271571 187.6134882172448" height="187.6134882172448" width="213.1584412271571" id="textblock"><g><svg viewBox="0 0 213.1584412271571 187.6134882172448" height="187.6134882172448" width="213.1584412271571"><g transform="matrix(1,0,0,1,0,0)"><svg width="213.1584412271571" viewBox="1.0499999523162842 -33.04999923706055 37.54999923706055 33.04999923706055" height="187.6134882172448" data-palette-color="#ffffff"><path d="M8.05 0L1.05 0 1.05-1.1 2.05-1.4Q3-1.7 3.35-2.38 3.7-3.05 3.7-4.15L3.7-4.15 3.7-28.9Q3.7-29.9 3.45-30.53 3.2-31.15 2.2-31.5L2.2-31.5 1.05-31.95 1.05-33.05 10.6-33.05 20-8.6 28.85-33.05 38.6-33.05 38.6-31.95 37.8-31.7Q36.85-31.4 36.5-30.78 36.15-30.15 36.15-29.15L36.15-29.15Q36.1-26.25 36.1-23.38 36.1-20.5 36.1-17.55L36.1-17.55 36.1-15.5Q36.1-12.6 36.1-9.7 36.1-6.8 36.15-3.95L36.15-3.95Q36.15-2.9 36.4-2.35 36.65-1.8 37.6-1.45L37.6-1.45 38.6-1.1 38.6 0 26.45 0 26.45-1.1 27.55-1.45Q28.5-1.8 28.73-2.38 28.95-2.95 28.95-3.95L28.95-3.95 28.95-14.8 29.05-28.2 18.85 0 16.05 0 5.3-27.9 5.5-16.5 5.5-4.1Q5.5-3 5.8-2.35 6.1-1.7 7.05-1.45L7.05-1.45 8.05-1.1 8.05 0Z" opacity="1" transform="matrix(1,0,0,1,0,0)" fill="#ffffff" class="undefined-text-0" data-fill-palette-color="quaternary" id="text-0"></path></svg></g></svg></g></svg></g></svg></g><g></g></svg></g></svg></g></svg></g></svg></g><defs></defs></svg><rect width="342.85155851775386" height="342.85155851775386" fill="none" stroke="none" visibility="hidden"></rect></g></svg></g></svg>